%TF.GenerationSoftware,KiCad,Pcbnew,8.0.0*%
%TF.CreationDate,2024-04-09T10:55:27+02:00*%
%TF.ProjectId,LoraTimerSender,4c6f7261-5469-46d6-9572-53656e646572,rev?*%
%TF.SameCoordinates,Original*%
%TF.FileFunction,Legend,Top*%
%TF.FilePolarity,Positive*%
%FSLAX46Y46*%
G04 Gerber Fmt 4.6, Leading zero omitted, Abs format (unit mm)*
G04 Created by KiCad (PCBNEW 8.0.0) date 2024-04-09 10:55:27*
%MOMM*%
%LPD*%
G01*
G04 APERTURE LIST*
%ADD10C,0.150000*%
%ADD11C,0.127000*%
%ADD12C,0.120000*%
G04 APERTURE END LIST*
D10*
X124532319Y-92124404D02*
X125341842Y-92124404D01*
X125341842Y-92124404D02*
X125437080Y-92076785D01*
X125437080Y-92076785D02*
X125484700Y-92029166D01*
X125484700Y-92029166D02*
X125532319Y-91933928D01*
X125532319Y-91933928D02*
X125532319Y-91743452D01*
X125532319Y-91743452D02*
X125484700Y-91648214D01*
X125484700Y-91648214D02*
X125437080Y-91600595D01*
X125437080Y-91600595D02*
X125341842Y-91552976D01*
X125341842Y-91552976D02*
X124532319Y-91552976D01*
X125532319Y-90552976D02*
X125532319Y-91124404D01*
X125532319Y-90838690D02*
X124532319Y-90838690D01*
X124532319Y-90838690D02*
X124675176Y-90933928D01*
X124675176Y-90933928D02*
X124770414Y-91029166D01*
X124770414Y-91029166D02*
X124818033Y-91124404D01*
X141164819Y-95261904D02*
X141974342Y-95261904D01*
X141974342Y-95261904D02*
X142069580Y-95214285D01*
X142069580Y-95214285D02*
X142117200Y-95166666D01*
X142117200Y-95166666D02*
X142164819Y-95071428D01*
X142164819Y-95071428D02*
X142164819Y-94880952D01*
X142164819Y-94880952D02*
X142117200Y-94785714D01*
X142117200Y-94785714D02*
X142069580Y-94738095D01*
X142069580Y-94738095D02*
X141974342Y-94690476D01*
X141974342Y-94690476D02*
X141164819Y-94690476D01*
X141260057Y-94261904D02*
X141212438Y-94214285D01*
X141212438Y-94214285D02*
X141164819Y-94119047D01*
X141164819Y-94119047D02*
X141164819Y-93880952D01*
X141164819Y-93880952D02*
X141212438Y-93785714D01*
X141212438Y-93785714D02*
X141260057Y-93738095D01*
X141260057Y-93738095D02*
X141355295Y-93690476D01*
X141355295Y-93690476D02*
X141450533Y-93690476D01*
X141450533Y-93690476D02*
X141593390Y-93738095D01*
X141593390Y-93738095D02*
X142164819Y-94309523D01*
X142164819Y-94309523D02*
X142164819Y-93690476D01*
X129983333Y-92104819D02*
X129650000Y-91628628D01*
X129411905Y-92104819D02*
X129411905Y-91104819D01*
X129411905Y-91104819D02*
X129792857Y-91104819D01*
X129792857Y-91104819D02*
X129888095Y-91152438D01*
X129888095Y-91152438D02*
X129935714Y-91200057D01*
X129935714Y-91200057D02*
X129983333Y-91295295D01*
X129983333Y-91295295D02*
X129983333Y-91438152D01*
X129983333Y-91438152D02*
X129935714Y-91533390D01*
X129935714Y-91533390D02*
X129888095Y-91581009D01*
X129888095Y-91581009D02*
X129792857Y-91628628D01*
X129792857Y-91628628D02*
X129411905Y-91628628D01*
X130935714Y-92104819D02*
X130364286Y-92104819D01*
X130650000Y-92104819D02*
X130650000Y-91104819D01*
X130650000Y-91104819D02*
X130554762Y-91247676D01*
X130554762Y-91247676D02*
X130459524Y-91342914D01*
X130459524Y-91342914D02*
X130364286Y-91390533D01*
X163732680Y-89788095D02*
X162923157Y-89788095D01*
X162923157Y-89788095D02*
X162827919Y-89835714D01*
X162827919Y-89835714D02*
X162780300Y-89883333D01*
X162780300Y-89883333D02*
X162732680Y-89978571D01*
X162732680Y-89978571D02*
X162732680Y-90169047D01*
X162732680Y-90169047D02*
X162780300Y-90264285D01*
X162780300Y-90264285D02*
X162827919Y-90311904D01*
X162827919Y-90311904D02*
X162923157Y-90359523D01*
X162923157Y-90359523D02*
X163732680Y-90359523D01*
X163732680Y-90740476D02*
X163732680Y-91359523D01*
X163732680Y-91359523D02*
X163351728Y-91026190D01*
X163351728Y-91026190D02*
X163351728Y-91169047D01*
X163351728Y-91169047D02*
X163304109Y-91264285D01*
X163304109Y-91264285D02*
X163256490Y-91311904D01*
X163256490Y-91311904D02*
X163161252Y-91359523D01*
X163161252Y-91359523D02*
X162923157Y-91359523D01*
X162923157Y-91359523D02*
X162827919Y-91311904D01*
X162827919Y-91311904D02*
X162780300Y-91264285D01*
X162780300Y-91264285D02*
X162732680Y-91169047D01*
X162732680Y-91169047D02*
X162732680Y-90883333D01*
X162732680Y-90883333D02*
X162780300Y-90788095D01*
X162780300Y-90788095D02*
X162827919Y-90740476D01*
X129983333Y-94254819D02*
X129650000Y-93778628D01*
X129411905Y-94254819D02*
X129411905Y-93254819D01*
X129411905Y-93254819D02*
X129792857Y-93254819D01*
X129792857Y-93254819D02*
X129888095Y-93302438D01*
X129888095Y-93302438D02*
X129935714Y-93350057D01*
X129935714Y-93350057D02*
X129983333Y-93445295D01*
X129983333Y-93445295D02*
X129983333Y-93588152D01*
X129983333Y-93588152D02*
X129935714Y-93683390D01*
X129935714Y-93683390D02*
X129888095Y-93731009D01*
X129888095Y-93731009D02*
X129792857Y-93778628D01*
X129792857Y-93778628D02*
X129411905Y-93778628D01*
X130364286Y-93350057D02*
X130411905Y-93302438D01*
X130411905Y-93302438D02*
X130507143Y-93254819D01*
X130507143Y-93254819D02*
X130745238Y-93254819D01*
X130745238Y-93254819D02*
X130840476Y-93302438D01*
X130840476Y-93302438D02*
X130888095Y-93350057D01*
X130888095Y-93350057D02*
X130935714Y-93445295D01*
X130935714Y-93445295D02*
X130935714Y-93540533D01*
X130935714Y-93540533D02*
X130888095Y-93683390D01*
X130888095Y-93683390D02*
X130316667Y-94254819D01*
X130316667Y-94254819D02*
X130935714Y-94254819D01*
X145764580Y-95241666D02*
X145812200Y-95289285D01*
X145812200Y-95289285D02*
X145859819Y-95432142D01*
X145859819Y-95432142D02*
X145859819Y-95527380D01*
X145859819Y-95527380D02*
X145812200Y-95670237D01*
X145812200Y-95670237D02*
X145716961Y-95765475D01*
X145716961Y-95765475D02*
X145621723Y-95813094D01*
X145621723Y-95813094D02*
X145431247Y-95860713D01*
X145431247Y-95860713D02*
X145288390Y-95860713D01*
X145288390Y-95860713D02*
X145097914Y-95813094D01*
X145097914Y-95813094D02*
X145002676Y-95765475D01*
X145002676Y-95765475D02*
X144907438Y-95670237D01*
X144907438Y-95670237D02*
X144859819Y-95527380D01*
X144859819Y-95527380D02*
X144859819Y-95432142D01*
X144859819Y-95432142D02*
X144907438Y-95289285D01*
X144907438Y-95289285D02*
X144955057Y-95241666D01*
X144955057Y-94860713D02*
X144907438Y-94813094D01*
X144907438Y-94813094D02*
X144859819Y-94717856D01*
X144859819Y-94717856D02*
X144859819Y-94479761D01*
X144859819Y-94479761D02*
X144907438Y-94384523D01*
X144907438Y-94384523D02*
X144955057Y-94336904D01*
X144955057Y-94336904D02*
X145050295Y-94289285D01*
X145050295Y-94289285D02*
X145145533Y-94289285D01*
X145145533Y-94289285D02*
X145288390Y-94336904D01*
X145288390Y-94336904D02*
X145859819Y-94908332D01*
X145859819Y-94908332D02*
X145859819Y-94289285D01*
X135089580Y-96816666D02*
X135137200Y-96864285D01*
X135137200Y-96864285D02*
X135184819Y-97007142D01*
X135184819Y-97007142D02*
X135184819Y-97102380D01*
X135184819Y-97102380D02*
X135137200Y-97245237D01*
X135137200Y-97245237D02*
X135041961Y-97340475D01*
X135041961Y-97340475D02*
X134946723Y-97388094D01*
X134946723Y-97388094D02*
X134756247Y-97435713D01*
X134756247Y-97435713D02*
X134613390Y-97435713D01*
X134613390Y-97435713D02*
X134422914Y-97388094D01*
X134422914Y-97388094D02*
X134327676Y-97340475D01*
X134327676Y-97340475D02*
X134232438Y-97245237D01*
X134232438Y-97245237D02*
X134184819Y-97102380D01*
X134184819Y-97102380D02*
X134184819Y-97007142D01*
X134184819Y-97007142D02*
X134232438Y-96864285D01*
X134232438Y-96864285D02*
X134280057Y-96816666D01*
X135184819Y-95864285D02*
X135184819Y-96435713D01*
X135184819Y-96149999D02*
X134184819Y-96149999D01*
X134184819Y-96149999D02*
X134327676Y-96245237D01*
X134327676Y-96245237D02*
X134422914Y-96340475D01*
X134422914Y-96340475D02*
X134470533Y-96435713D01*
D11*
%TO.C,U1*%
X122927500Y-101162500D02*
X122927500Y-75662500D01*
X154177500Y-93412500D02*
X154177500Y-83412500D01*
X154177500Y-83412500D02*
X151877500Y-80662500D01*
X151877500Y-101162500D02*
X122927500Y-101162500D01*
X151877500Y-96162500D02*
X154177500Y-93412500D01*
X151877500Y-96162500D02*
X151877500Y-101162500D01*
X151877500Y-75662500D02*
X151877500Y-80662500D01*
X122927500Y-75662500D02*
X151877500Y-75662500D01*
D12*
%TO.C,U2*%
X135750000Y-94500000D02*
X135750000Y-92550000D01*
X135750000Y-94500000D02*
X135750000Y-96450000D01*
X140870000Y-94500000D02*
X140870000Y-92550000D01*
X140870000Y-94500000D02*
X140870000Y-96450000D01*
X141105000Y-92040000D02*
X140775000Y-91800000D01*
X141105000Y-91560000D01*
X141105000Y-92040000D01*
G36*
X141105000Y-92040000D02*
G01*
X140775000Y-91800000D01*
X141105000Y-91560000D01*
X141105000Y-92040000D01*
G37*
%TO.C,R1*%
X133352064Y-90840000D02*
X132897936Y-90840000D01*
X133352064Y-92310000D02*
X132897936Y-92310000D01*
%TO.C,U3*%
X148212500Y-82150000D02*
X148212500Y-88150000D01*
X148212500Y-82150000D02*
X148212500Y-94150000D01*
X148212500Y-82150000D02*
X151212500Y-82150000D01*
X148212500Y-94150000D02*
X151212500Y-94150000D01*
X151212500Y-82150000D02*
G75*
G02*
X151212500Y-94150000I0J-6000000D01*
G01*
%TO.C,R2*%
X133352064Y-92940000D02*
X132897936Y-92940000D01*
X133352064Y-94410000D02*
X132897936Y-94410000D01*
%TO.C,C2*%
X142990000Y-94813748D02*
X142990000Y-95336252D01*
X144460000Y-94813748D02*
X144460000Y-95336252D01*
%TO.C,C1*%
X132315000Y-96388748D02*
X132315000Y-96911252D01*
X133785000Y-96388748D02*
X133785000Y-96911252D01*
%TD*%
M02*
