M48
; DRILL file {KiCad 8.0.0} date 2024-04-09T10:55:30+0200
; FORMAT={-:-/ absolute / inch / decimal}
; #@! TF.CreationDate,2024-04-09T10:55:30+02:00
; #@! TF.GenerationSoftware,Kicad,Pcbnew,8.0.0
; #@! TF.FileFunction,Plated,1,2,PTH
FMAT,2
INCH
; #@! TA.AperFunction,Plated,PTH,ViaDrill
T1C0.0118
; #@! TA.AperFunction,Plated,PTH,ComponentDrill
T2C0.0433
%
G90
G05
T1
X5.2382Y-3.7643
X6.0157Y-3.44
T2
X4.8999Y-3.0277
X4.8999Y-3.934
X4.9999Y-3.0277
X4.9999Y-3.934
X5.0999Y-3.0277
X5.0999Y-3.934
X5.1999Y-3.0277
X5.1999Y-3.934
X5.2999Y-3.0277
X5.2999Y-3.934
X5.3999Y-3.0277
X5.3999Y-3.934
X5.4999Y-3.0277
X5.4999Y-3.934
X5.5999Y-3.0277
X5.5999Y-3.934
X5.6999Y-3.0277
X5.6999Y-3.934
X5.7999Y-3.0277
X5.7999Y-3.934
X5.8999Y-3.0277
X5.8999Y-3.934
M30
