%TF.GenerationSoftware,KiCad,Pcbnew,8.0.0*%
%TF.CreationDate,2024-04-09T10:55:27+02:00*%
%TF.ProjectId,LoraTimerSender,4c6f7261-5469-46d6-9572-53656e646572,rev?*%
%TF.SameCoordinates,Original*%
%TF.FileFunction,Copper,L1,Top*%
%TF.FilePolarity,Positive*%
%FSLAX46Y46*%
G04 Gerber Fmt 4.6, Leading zero omitted, Abs format (unit mm)*
G04 Created by KiCad (PCBNEW 8.0.0) date 2024-04-09 10:55:27*
%MOMM*%
%LPD*%
G01*
G04 APERTURE LIST*
G04 Aperture macros list*
%AMRoundRect*
0 Rectangle with rounded corners*
0 $1 Rounding radius*
0 $2 $3 $4 $5 $6 $7 $8 $9 X,Y pos of 4 corners*
0 Add a 4 corners polygon primitive as box body*
4,1,4,$2,$3,$4,$5,$6,$7,$8,$9,$2,$3,0*
0 Add four circle primitives for the rounded corners*
1,1,$1+$1,$2,$3*
1,1,$1+$1,$4,$5*
1,1,$1+$1,$6,$7*
1,1,$1+$1,$8,$9*
0 Add four rect primitives between the rounded corners*
20,1,$1+$1,$2,$3,$4,$5,0*
20,1,$1+$1,$4,$5,$6,$7,0*
20,1,$1+$1,$6,$7,$8,$9,0*
20,1,$1+$1,$8,$9,$2,$3,0*%
G04 Aperture macros list end*
%TA.AperFunction,ComponentPad*%
%ADD10C,1.650000*%
%TD*%
%TA.AperFunction,SMDPad,CuDef*%
%ADD11RoundRect,0.150000X-0.150000X0.825000X-0.150000X-0.825000X0.150000X-0.825000X0.150000X0.825000X0*%
%TD*%
%TA.AperFunction,SMDPad,CuDef*%
%ADD12RoundRect,0.250000X0.350000X0.450000X-0.350000X0.450000X-0.350000X-0.450000X0.350000X-0.450000X0*%
%TD*%
%TA.AperFunction,SMDPad,CuDef*%
%ADD13RoundRect,0.437500X-0.437500X0.437500X-0.437500X-0.437500X0.437500X-0.437500X0.437500X0.437500X0*%
%TD*%
%TA.AperFunction,SMDPad,CuDef*%
%ADD14RoundRect,0.437500X-0.562500X0.437500X-0.562500X-0.437500X0.562500X-0.437500X0.562500X0.437500X0*%
%TD*%
%TA.AperFunction,SMDPad,CuDef*%
%ADD15RoundRect,0.250000X-0.475000X0.250000X-0.475000X-0.250000X0.475000X-0.250000X0.475000X0.250000X0*%
%TD*%
%TA.AperFunction,SMDPad,CuDef*%
%ADD16RoundRect,0.250000X-0.475000X0.337500X-0.475000X-0.337500X0.475000X-0.337500X0.475000X0.337500X0*%
%TD*%
%TA.AperFunction,ViaPad*%
%ADD17C,0.600000*%
%TD*%
%TA.AperFunction,Conductor*%
%ADD18C,0.200000*%
%TD*%
G04 APERTURE END LIST*
D10*
%TO.P,U1,29,GPIO0*%
%TO.N,unconnected-(U1-GPIO0-Pad29)*%
X124457500Y-99922500D03*
%TO.P,U1,28,GPIO36*%
%TO.N,unconnected-(U1-GPIO36-Pad28)*%
X126997500Y-99922500D03*
%TO.P,U1,27,GPIO35*%
%TO.N,unconnected-(U1-GPIO35-Pad27)*%
X129537500Y-99922500D03*
%TO.P,U1,26,GPIO34*%
%TO.N,unconnected-(U1-GPIO34-Pad26)*%
X132077500Y-99922500D03*
%TO.P,U1,25,GPIO33*%
%TO.N,unconnected-(U1-GPIO33-Pad25)*%
X134617500Y-99922500D03*
%TO.P,U1,24,GPIO47*%
%TO.N,/SDA*%
X137157500Y-99922500D03*
%TO.P,U1,23,GPIO48*%
%TO.N,/SCL*%
X139697500Y-99922500D03*
%TO.P,U1,22,GPIO26*%
%TO.N,unconnected-(U1-GPIO26-Pad22)*%
X142237500Y-99922500D03*
%TO.P,U1,21,GPIO21*%
%TO.N,unconnected-(U1-GPIO21-Pad21)*%
X144777500Y-99922500D03*
%TO.P,U1,20,GPIO20*%
%TO.N,unconnected-(U1-GPIO20-Pad20)*%
X147317500Y-99922500D03*
%TO.P,U1,19,GPIO19*%
%TO.N,unconnected-(U1-GPIO19-Pad19)*%
X149857500Y-99922500D03*
%TO.P,U1,18,GPIO7*%
%TO.N,/SW_3*%
X149857500Y-76902500D03*
%TO.P,U1,17,GPIO6*%
%TO.N,/SW_2*%
X147317500Y-76902500D03*
%TO.P,U1,16,GPIO5*%
%TO.N,/SW_1*%
X144777500Y-76902500D03*
%TO.P,U1,15,GPIO4*%
%TO.N,/SW_COMMON*%
X142237500Y-76902500D03*
%TO.P,U1,14,GPIO3*%
%TO.N,unconnected-(U1-GPIO3-Pad14)*%
X139697500Y-76902500D03*
%TO.P,U1,13,GPIO2*%
%TO.N,unconnected-(U1-GPIO2-Pad13)*%
X137157500Y-76902500D03*
%TO.P,U1,12,GPIO1*%
%TO.N,unconnected-(U1-GPIO1-Pad12)*%
X134617500Y-76902500D03*
%TO.P,U1,11,GPIO38*%
%TO.N,unconnected-(U1-GPIO38-Pad11)*%
X132077500Y-76902500D03*
%TO.P,U1,10,GPIO39*%
%TO.N,unconnected-(U1-GPIO39-Pad10)*%
X129537500Y-76902500D03*
%TO.P,U1,9,GPIO40*%
%TO.N,unconnected-(U1-GPIO40-Pad9)*%
X126997500Y-76902500D03*
%TO.P,U1,8,GPIO41*%
%TO.N,unconnected-(U1-GPIO41-Pad8)*%
X124457500Y-76902500D03*
%TD*%
D11*
%TO.P,U2,1,32KHZ*%
%TO.N,unconnected-(U2-32KHZ-Pad1)*%
X140215000Y-92025000D03*
%TO.P,U2,2,VCC*%
%TO.N,VDD*%
X138945000Y-92025000D03*
%TO.P,U2,3,~{INT}/SQW*%
%TO.N,unconnected-(U2-~{INT}{slash}SQW-Pad3)*%
X137675000Y-92025000D03*
%TO.P,U2,4,~{RST}*%
%TO.N,unconnected-(U2-~{RST}-Pad4)*%
X136405000Y-92025000D03*
%TO.P,U2,5,GND*%
%TO.N,GND*%
X136405000Y-96975000D03*
%TO.P,U2,6,VBAT*%
%TO.N,+BATT*%
X137675000Y-96975000D03*
%TO.P,U2,7,SDA*%
%TO.N,/SDA*%
X138945000Y-96975000D03*
%TO.P,U2,8,SCL*%
%TO.N,/SCL*%
X140215000Y-96975000D03*
%TD*%
D12*
%TO.P,R1,1*%
%TO.N,/SCL*%
X134125000Y-91575000D03*
%TO.P,R1,2*%
%TO.N,VDD*%
X132125000Y-91575000D03*
%TD*%
D13*
%TO.P,U3,1,SW_UP*%
%TO.N,/SW_1*%
X148437500Y-85650000D03*
%TO.P,U3,2,SW_PRESS*%
%TO.N,/SW_2*%
X148437500Y-88150000D03*
%TO.P,U3,3,SW_DOWN*%
%TO.N,/SW_3*%
X148437500Y-90650000D03*
D14*
%TO.P,U3,4,COMMON*%
%TO.N,/SW_COMMON*%
X153037500Y-93650000D03*
%TO.P,U3,5,GND*%
%TO.N,GND*%
X153037500Y-82650000D03*
%TD*%
D12*
%TO.P,R2,1*%
%TO.N,/SDA*%
X134125000Y-93675000D03*
%TO.P,R2,2*%
%TO.N,VDD*%
X132125000Y-93675000D03*
%TD*%
D15*
%TO.P,C2,1*%
%TO.N,VDD*%
X143725000Y-94125000D03*
%TO.P,C2,2*%
%TO.N,GND*%
X143725000Y-96025000D03*
%TD*%
D16*
%TO.P,C1,1*%
%TO.N,+BATT*%
X133050000Y-95612500D03*
%TO.P,C1,2*%
%TO.N,GND*%
X133050000Y-97687500D03*
%TD*%
D17*
%TO.N,+BATT*%
X133050000Y-95612500D03*
%TO.N,GND*%
X152800000Y-87375000D03*
%TD*%
D18*
%TO.N,+BATT*%
X137287499Y-95612500D02*
X133050000Y-95612500D01*
X137675000Y-96975000D02*
X137675000Y-96000001D01*
X137675000Y-96000001D02*
X137287499Y-95612500D01*
%TO.N,GND*%
X135692500Y-97687500D02*
X133050000Y-97687500D01*
X136405000Y-96975000D02*
X135692500Y-97687500D01*
X153314985Y-82927485D02*
X153037500Y-82650000D01*
X153314985Y-86860015D02*
X153314985Y-82927485D01*
X152800000Y-87375000D02*
X153314985Y-86860015D01*
%TO.N,VDD*%
X138945000Y-91395000D02*
X138945000Y-92025000D01*
X138945000Y-91430000D02*
X138945000Y-92025000D01*
X143725000Y-94125000D02*
X143725000Y-93625000D01*
X133125000Y-90575000D02*
X138125000Y-90575000D01*
X143725000Y-93625000D02*
X140850000Y-90750000D01*
X132125000Y-91575000D02*
X133125000Y-90575000D01*
X139625000Y-90750000D02*
X138945000Y-91430000D01*
X140850000Y-90750000D02*
X139625000Y-90750000D01*
X138125000Y-90575000D02*
X138945000Y-91395000D01*
X132125000Y-93675000D02*
X132125000Y-91575000D01*
%TO.N,/SCL*%
X134125000Y-91675000D02*
X134125000Y-91575000D01*
X140215000Y-96975000D02*
X140215000Y-99405000D01*
X140215000Y-96975000D02*
X140215000Y-95040000D01*
X135775000Y-93325000D02*
X134125000Y-91675000D01*
X138500000Y-93325000D02*
X135775000Y-93325000D01*
X140215000Y-99405000D02*
X139697500Y-99922500D01*
X140215000Y-95040000D02*
X138500000Y-93325000D01*
%TO.N,/SDA*%
X134175000Y-93725000D02*
X136669999Y-93725000D01*
X136669999Y-93725000D02*
X138945000Y-96000001D01*
X138945000Y-96975000D02*
X138945000Y-98135000D01*
X134125000Y-93675000D02*
X134175000Y-93725000D01*
X138945000Y-98135000D02*
X137157500Y-99922500D01*
X138945000Y-96000001D02*
X138945000Y-96975000D01*
%TO.N,/SW_1*%
X148437500Y-80562500D02*
X144777500Y-76902500D01*
X148437500Y-85650000D02*
X148437500Y-80562500D01*
%TO.N,/SW_3*%
X150510015Y-88577485D02*
X150510015Y-77555015D01*
X148437500Y-90650000D02*
X150510015Y-88577485D01*
X150510015Y-77555015D02*
X149857500Y-76902500D01*
%TO.N,/SW_2*%
X149612500Y-79197500D02*
X147317500Y-76902500D01*
X148437500Y-88150000D02*
X149612500Y-86975000D01*
X149612500Y-86975000D02*
X149612500Y-79197500D01*
%TO.N,/SW_COMMON*%
X153037500Y-93650000D02*
X149512528Y-93650000D01*
X142237500Y-86374972D02*
X142237500Y-76902500D01*
X149512528Y-93650000D02*
X142237500Y-86374972D01*
%TD*%
%TA.AperFunction,Conductor*%
%TO.N,GND*%
G36*
X141035365Y-77505004D02*
G01*
X141079881Y-77556378D01*
X141085199Y-77567782D01*
X141218230Y-77757769D01*
X141382231Y-77921770D01*
X141572218Y-78054801D01*
X141572229Y-78054806D01*
X141574996Y-78056404D01*
X141575976Y-78057432D01*
X141576653Y-78057906D01*
X141576557Y-78058041D01*
X141623213Y-78106970D01*
X141637000Y-78163794D01*
X141637000Y-86288302D01*
X141636999Y-86288320D01*
X141636999Y-86454026D01*
X141636998Y-86454026D01*
X141677922Y-86606755D01*
X141702916Y-86650045D01*
X141702918Y-86650048D01*
X141756979Y-86743686D01*
X141756981Y-86743689D01*
X141875849Y-86862557D01*
X141875855Y-86862562D01*
X149027667Y-94014374D01*
X149027677Y-94014385D01*
X149032007Y-94018715D01*
X149032008Y-94018716D01*
X149143812Y-94130520D01*
X149220868Y-94175008D01*
X149280743Y-94209577D01*
X149433470Y-94250500D01*
X149433471Y-94250500D01*
X151452437Y-94250500D01*
X151519476Y-94270185D01*
X151565231Y-94322989D01*
X151572212Y-94342405D01*
X151577414Y-94361819D01*
X151594478Y-94425501D01*
X151683994Y-94601186D01*
X151808080Y-94754420D01*
X151961314Y-94878506D01*
X152136999Y-94968022D01*
X152327456Y-95019055D01*
X152409347Y-95025500D01*
X153665652Y-95025499D01*
X153740774Y-95019587D01*
X153809149Y-95033951D01*
X153858905Y-95083003D01*
X153874500Y-95143205D01*
X153874500Y-100725500D01*
X153854815Y-100792539D01*
X153802011Y-100838294D01*
X153750500Y-100849500D01*
X151064746Y-100849500D01*
X150997707Y-100829815D01*
X150951952Y-100777011D01*
X150942008Y-100707853D01*
X150963171Y-100654377D01*
X151009798Y-100587786D01*
X151009797Y-100587786D01*
X151009801Y-100587782D01*
X151107820Y-100377579D01*
X151167849Y-100153550D01*
X151188063Y-99922500D01*
X151167849Y-99691450D01*
X151107820Y-99467421D01*
X151009801Y-99257219D01*
X151009799Y-99257216D01*
X151009798Y-99257214D01*
X150876773Y-99067235D01*
X150876768Y-99067229D01*
X150712769Y-98903230D01*
X150712376Y-98902955D01*
X150522782Y-98770199D01*
X150312579Y-98672180D01*
X150312576Y-98672179D01*
X150312574Y-98672178D01*
X150088551Y-98612151D01*
X150088544Y-98612150D01*
X149857502Y-98591937D01*
X149857498Y-98591937D01*
X149626455Y-98612150D01*
X149626448Y-98612151D01*
X149402417Y-98672181D01*
X149192218Y-98770199D01*
X149192214Y-98770201D01*
X149002235Y-98903226D01*
X149002229Y-98903231D01*
X148838231Y-99067229D01*
X148838226Y-99067235D01*
X148705201Y-99257214D01*
X148705198Y-99257220D01*
X148699881Y-99268623D01*
X148653707Y-99321062D01*
X148586513Y-99340212D01*
X148519633Y-99319995D01*
X148475119Y-99268623D01*
X148469801Y-99257220D01*
X148469798Y-99257214D01*
X148336773Y-99067235D01*
X148336768Y-99067229D01*
X148172769Y-98903230D01*
X148172376Y-98902955D01*
X147982782Y-98770199D01*
X147772579Y-98672180D01*
X147772576Y-98672179D01*
X147772574Y-98672178D01*
X147548551Y-98612151D01*
X147548544Y-98612150D01*
X147317502Y-98591937D01*
X147317498Y-98591937D01*
X147086455Y-98612150D01*
X147086448Y-98612151D01*
X146862417Y-98672181D01*
X146652218Y-98770199D01*
X146652214Y-98770201D01*
X146462235Y-98903226D01*
X146462229Y-98903231D01*
X146298231Y-99067229D01*
X146298226Y-99067235D01*
X146165201Y-99257214D01*
X146165198Y-99257220D01*
X146159881Y-99268623D01*
X146113707Y-99321062D01*
X146046513Y-99340212D01*
X145979633Y-99319995D01*
X145935119Y-99268623D01*
X145929801Y-99257220D01*
X145929798Y-99257214D01*
X145796773Y-99067235D01*
X145796768Y-99067229D01*
X145632769Y-98903230D01*
X145632376Y-98902955D01*
X145442782Y-98770199D01*
X145232579Y-98672180D01*
X145232576Y-98672179D01*
X145232574Y-98672178D01*
X145008551Y-98612151D01*
X145008544Y-98612150D01*
X144777502Y-98591937D01*
X144777498Y-98591937D01*
X144546455Y-98612150D01*
X144546448Y-98612151D01*
X144322417Y-98672181D01*
X144112218Y-98770199D01*
X144112214Y-98770201D01*
X143922235Y-98903226D01*
X143922229Y-98903231D01*
X143758231Y-99067229D01*
X143758226Y-99067235D01*
X143625201Y-99257214D01*
X143625198Y-99257220D01*
X143619881Y-99268623D01*
X143573707Y-99321062D01*
X143506513Y-99340212D01*
X143439633Y-99319995D01*
X143395119Y-99268623D01*
X143389801Y-99257220D01*
X143389798Y-99257214D01*
X143256773Y-99067235D01*
X143256768Y-99067229D01*
X143092769Y-98903230D01*
X143092376Y-98902955D01*
X142902782Y-98770199D01*
X142692579Y-98672180D01*
X142692576Y-98672179D01*
X142692574Y-98672178D01*
X142468551Y-98612151D01*
X142468544Y-98612150D01*
X142237502Y-98591937D01*
X142237498Y-98591937D01*
X142006455Y-98612150D01*
X142006448Y-98612151D01*
X141782417Y-98672181D01*
X141572218Y-98770199D01*
X141572214Y-98770201D01*
X141382235Y-98903226D01*
X141382229Y-98903231D01*
X141218231Y-99067229D01*
X141218226Y-99067235D01*
X141085201Y-99257214D01*
X141085198Y-99257220D01*
X141079881Y-99268623D01*
X141033707Y-99321062D01*
X140966513Y-99340212D01*
X140899633Y-99319995D01*
X140855119Y-99268623D01*
X140849801Y-99257220D01*
X140849801Y-99257219D01*
X140837924Y-99240257D01*
X140815598Y-99174053D01*
X140815500Y-99169135D01*
X140815500Y-98320808D01*
X140835185Y-98253769D01*
X140851820Y-98233126D01*
X140883076Y-98201870D01*
X140883081Y-98201865D01*
X140966744Y-98060398D01*
X141012598Y-97902569D01*
X141015500Y-97865694D01*
X141015500Y-96275000D01*
X142500001Y-96275000D01*
X142500001Y-96324986D01*
X142510494Y-96427697D01*
X142565641Y-96594119D01*
X142565643Y-96594124D01*
X142657684Y-96743345D01*
X142781654Y-96867315D01*
X142930875Y-96959356D01*
X142930880Y-96959358D01*
X143097302Y-97014505D01*
X143097309Y-97014506D01*
X143200019Y-97024999D01*
X143474999Y-97024999D01*
X143475000Y-97024998D01*
X143475000Y-96275000D01*
X143975000Y-96275000D01*
X143975000Y-97024999D01*
X144249972Y-97024999D01*
X144249986Y-97024998D01*
X144352697Y-97014505D01*
X144519119Y-96959358D01*
X144519124Y-96959356D01*
X144668345Y-96867315D01*
X144792315Y-96743345D01*
X144884356Y-96594124D01*
X144884358Y-96594119D01*
X144939505Y-96427697D01*
X144939506Y-96427690D01*
X144949999Y-96324986D01*
X144950000Y-96324973D01*
X144950000Y-96275000D01*
X143975000Y-96275000D01*
X143475000Y-96275000D01*
X142500001Y-96275000D01*
X141015500Y-96275000D01*
X141015500Y-96084306D01*
X141012598Y-96047431D01*
X140998823Y-96000019D01*
X140966745Y-95889606D01*
X140966744Y-95889603D01*
X140966744Y-95889602D01*
X140883081Y-95748135D01*
X140883079Y-95748133D01*
X140883076Y-95748129D01*
X140851819Y-95716872D01*
X140818334Y-95655549D01*
X140815500Y-95629191D01*
X140815500Y-94960946D01*
X140815500Y-94960943D01*
X140792606Y-94875499D01*
X140774577Y-94808215D01*
X140722325Y-94717712D01*
X140695520Y-94671284D01*
X140583716Y-94559480D01*
X140579385Y-94555149D01*
X140579374Y-94555139D01*
X139682904Y-93658669D01*
X139649419Y-93597346D01*
X139654403Y-93527654D01*
X139696275Y-93471721D01*
X139761739Y-93447304D01*
X139805180Y-93451912D01*
X139962426Y-93497597D01*
X139962429Y-93497597D01*
X139962431Y-93497598D01*
X139999306Y-93500500D01*
X139999314Y-93500500D01*
X140430686Y-93500500D01*
X140430694Y-93500500D01*
X140467569Y-93497598D01*
X140467571Y-93497597D01*
X140467573Y-93497597D01*
X140556637Y-93471721D01*
X140625398Y-93451744D01*
X140766865Y-93368081D01*
X140883081Y-93251865D01*
X140966744Y-93110398D01*
X141012598Y-92952569D01*
X141015500Y-92915694D01*
X141015500Y-92064097D01*
X141035185Y-91997058D01*
X141087989Y-91951303D01*
X141157147Y-91941359D01*
X141220703Y-91970384D01*
X141227181Y-91976416D01*
X142587890Y-93337125D01*
X142621375Y-93398448D01*
X142616391Y-93468140D01*
X142605749Y-93489901D01*
X142565188Y-93555663D01*
X142565186Y-93555666D01*
X142510001Y-93722203D01*
X142510001Y-93722204D01*
X142510000Y-93722204D01*
X142499500Y-93824983D01*
X142499500Y-94425001D01*
X142499501Y-94425019D01*
X142510000Y-94527796D01*
X142510001Y-94527799D01*
X142565185Y-94694331D01*
X142565187Y-94694336D01*
X142579606Y-94717713D01*
X142657288Y-94843656D01*
X142781344Y-94967712D01*
X142781847Y-94968022D01*
X142784653Y-94969753D01*
X142786445Y-94971746D01*
X142787011Y-94972193D01*
X142786934Y-94972289D01*
X142831379Y-95021699D01*
X142842603Y-95090661D01*
X142814761Y-95154744D01*
X142784665Y-95180826D01*
X142781660Y-95182679D01*
X142781655Y-95182683D01*
X142657684Y-95306654D01*
X142565643Y-95455875D01*
X142565641Y-95455880D01*
X142510494Y-95622302D01*
X142510493Y-95622309D01*
X142500000Y-95725013D01*
X142500000Y-95775000D01*
X144949999Y-95775000D01*
X144949999Y-95725028D01*
X144949998Y-95725013D01*
X144939505Y-95622302D01*
X144884358Y-95455880D01*
X144884356Y-95455875D01*
X144792315Y-95306654D01*
X144668344Y-95182683D01*
X144668341Y-95182681D01*
X144665339Y-95180829D01*
X144663713Y-95179021D01*
X144662677Y-95178202D01*
X144662817Y-95178024D01*
X144618617Y-95128880D01*
X144607397Y-95059917D01*
X144635243Y-94995836D01*
X144665344Y-94969754D01*
X144668656Y-94967712D01*
X144792712Y-94843656D01*
X144884814Y-94694334D01*
X144939999Y-94527797D01*
X144950500Y-94425009D01*
X144950499Y-93824992D01*
X144939999Y-93722203D01*
X144884814Y-93555666D01*
X144792712Y-93406344D01*
X144668656Y-93282288D01*
X144519334Y-93190186D01*
X144352797Y-93135001D01*
X144352795Y-93135000D01*
X144250016Y-93124500D01*
X144250009Y-93124500D01*
X144125097Y-93124500D01*
X144058058Y-93104815D01*
X144037416Y-93088181D01*
X141337590Y-90388355D01*
X141337588Y-90388352D01*
X141218717Y-90269481D01*
X141218716Y-90269480D01*
X141131904Y-90219360D01*
X141131904Y-90219359D01*
X141131900Y-90219358D01*
X141081785Y-90190423D01*
X140929057Y-90149499D01*
X140770943Y-90149499D01*
X140763347Y-90149499D01*
X140763331Y-90149500D01*
X139704057Y-90149500D01*
X139545942Y-90149500D01*
X139393215Y-90190423D01*
X139393214Y-90190423D01*
X139393212Y-90190424D01*
X139393209Y-90190425D01*
X139343096Y-90219359D01*
X139343095Y-90219360D01*
X139299689Y-90244420D01*
X139256285Y-90269479D01*
X139256282Y-90269481D01*
X139187583Y-90338181D01*
X139144480Y-90381284D01*
X139144478Y-90381286D01*
X139085579Y-90440185D01*
X139050180Y-90475584D01*
X138988856Y-90509068D01*
X138919165Y-90504084D01*
X138874818Y-90475583D01*
X138612590Y-90213355D01*
X138612588Y-90213352D01*
X138493717Y-90094481D01*
X138493716Y-90094480D01*
X138406904Y-90044360D01*
X138406904Y-90044359D01*
X138406900Y-90044358D01*
X138356785Y-90015423D01*
X138204057Y-89974499D01*
X138045943Y-89974499D01*
X138038347Y-89974499D01*
X138038331Y-89974500D01*
X133211670Y-89974500D01*
X133211654Y-89974499D01*
X133204058Y-89974499D01*
X133045943Y-89974499D01*
X132969579Y-89994961D01*
X132893214Y-90015423D01*
X132893209Y-90015426D01*
X132756290Y-90094475D01*
X132756282Y-90094481D01*
X132512582Y-90338181D01*
X132451259Y-90371666D01*
X132424901Y-90374500D01*
X131724998Y-90374500D01*
X131724980Y-90374501D01*
X131622203Y-90385000D01*
X131622200Y-90385001D01*
X131455668Y-90440185D01*
X131455663Y-90440187D01*
X131306342Y-90532289D01*
X131182289Y-90656342D01*
X131090187Y-90805663D01*
X131090186Y-90805666D01*
X131035001Y-90972203D01*
X131035001Y-90972204D01*
X131035000Y-90972204D01*
X131024500Y-91074983D01*
X131024500Y-92075001D01*
X131024501Y-92075019D01*
X131035000Y-92177796D01*
X131035001Y-92177799D01*
X131090185Y-92344331D01*
X131090187Y-92344336D01*
X131182289Y-92493657D01*
X131225951Y-92537320D01*
X131259435Y-92598643D01*
X131254450Y-92668335D01*
X131225951Y-92712680D01*
X131182289Y-92756342D01*
X131090187Y-92905663D01*
X131090185Y-92905668D01*
X131072978Y-92957595D01*
X131035001Y-93072203D01*
X131035001Y-93072204D01*
X131035000Y-93072204D01*
X131024500Y-93174983D01*
X131024500Y-94175001D01*
X131024501Y-94175007D01*
X131035000Y-94277796D01*
X131035001Y-94277799D01*
X131083780Y-94425001D01*
X131090186Y-94444334D01*
X131182288Y-94593656D01*
X131306344Y-94717712D01*
X131455666Y-94809814D01*
X131622203Y-94864999D01*
X131724991Y-94875500D01*
X131745028Y-94875499D01*
X131812065Y-94895181D01*
X131857822Y-94947983D01*
X131867769Y-95017141D01*
X131862736Y-95038502D01*
X131835001Y-95122200D01*
X131835000Y-95122204D01*
X131824500Y-95224983D01*
X131824500Y-96000001D01*
X131824501Y-96000019D01*
X131835000Y-96102796D01*
X131835001Y-96102799D01*
X131890185Y-96269331D01*
X131890187Y-96269336D01*
X131893681Y-96275000D01*
X131982288Y-96418656D01*
X132106344Y-96542712D01*
X132109628Y-96544737D01*
X132109653Y-96544753D01*
X132111445Y-96546746D01*
X132112011Y-96547193D01*
X132111934Y-96547289D01*
X132156379Y-96596699D01*
X132167603Y-96665661D01*
X132139761Y-96729744D01*
X132109665Y-96755826D01*
X132106660Y-96757679D01*
X132106655Y-96757683D01*
X131982684Y-96881654D01*
X131890643Y-97030875D01*
X131890641Y-97030880D01*
X131835494Y-97197302D01*
X131835493Y-97197309D01*
X131825000Y-97300013D01*
X131825000Y-97437500D01*
X134274999Y-97437500D01*
X134274999Y-97300028D01*
X134274998Y-97300013D01*
X134267335Y-97225000D01*
X135605000Y-97225000D01*
X135605000Y-97865649D01*
X135607899Y-97902489D01*
X135607900Y-97902495D01*
X135653716Y-98060193D01*
X135653717Y-98060196D01*
X135737314Y-98201552D01*
X135737321Y-98201561D01*
X135853438Y-98317678D01*
X135853447Y-98317685D01*
X135994801Y-98401281D01*
X136152514Y-98447100D01*
X136152511Y-98447100D01*
X136154998Y-98447295D01*
X136155000Y-98447295D01*
X136155000Y-97225000D01*
X135605000Y-97225000D01*
X134267335Y-97225000D01*
X134264505Y-97197302D01*
X134209358Y-97030880D01*
X134209356Y-97030875D01*
X134117315Y-96881654D01*
X133993344Y-96757683D01*
X133993341Y-96757681D01*
X133990339Y-96755829D01*
X133988713Y-96754021D01*
X133987677Y-96753202D01*
X133987817Y-96753024D01*
X133943617Y-96703880D01*
X133932397Y-96634917D01*
X133960243Y-96570836D01*
X133990344Y-96544754D01*
X133993656Y-96542712D01*
X134117712Y-96418656D01*
X134208229Y-96271902D01*
X134260177Y-96225179D01*
X134313768Y-96213000D01*
X135481000Y-96213000D01*
X135548039Y-96232685D01*
X135593794Y-96285489D01*
X135605000Y-96337000D01*
X135605000Y-96725000D01*
X136531000Y-96725000D01*
X136598039Y-96744685D01*
X136643794Y-96797489D01*
X136655000Y-96849000D01*
X136655000Y-98447295D01*
X136673745Y-98464623D01*
X136677000Y-98465307D01*
X136726758Y-98514357D01*
X136742098Y-98582522D01*
X136718151Y-98648160D01*
X136670759Y-98686944D01*
X136492218Y-98770199D01*
X136492214Y-98770201D01*
X136302235Y-98903226D01*
X136302229Y-98903231D01*
X136138231Y-99067229D01*
X136138226Y-99067235D01*
X136005201Y-99257214D01*
X136005198Y-99257220D01*
X135999881Y-99268623D01*
X135953707Y-99321062D01*
X135886513Y-99340212D01*
X135819633Y-99319995D01*
X135775119Y-99268623D01*
X135769801Y-99257220D01*
X135769798Y-99257214D01*
X135636773Y-99067235D01*
X135636768Y-99067229D01*
X135472769Y-98903230D01*
X135472376Y-98902955D01*
X135282782Y-98770199D01*
X135072579Y-98672180D01*
X135072576Y-98672179D01*
X135072574Y-98672178D01*
X134848551Y-98612151D01*
X134848544Y-98612150D01*
X134617502Y-98591937D01*
X134617498Y-98591937D01*
X134386455Y-98612150D01*
X134386445Y-98612152D01*
X134277728Y-98641283D01*
X134207879Y-98639620D01*
X134150016Y-98600458D01*
X134122512Y-98536229D01*
X134134098Y-98467327D01*
X134140097Y-98456411D01*
X134209353Y-98344130D01*
X134209358Y-98344119D01*
X134264505Y-98177697D01*
X134264506Y-98177690D01*
X134274999Y-98074986D01*
X134275000Y-98074973D01*
X134275000Y-97937500D01*
X133300000Y-97937500D01*
X133300000Y-98774999D01*
X133574972Y-98774999D01*
X133574981Y-98774998D01*
X133579603Y-98774526D01*
X133648297Y-98787290D01*
X133699185Y-98835167D01*
X133716111Y-98902955D01*
X133693701Y-98969133D01*
X133679897Y-98985564D01*
X133598226Y-99067235D01*
X133465201Y-99257214D01*
X133465198Y-99257220D01*
X133459881Y-99268623D01*
X133413707Y-99321062D01*
X133346513Y-99340212D01*
X133279633Y-99319995D01*
X133235119Y-99268623D01*
X133229801Y-99257220D01*
X133229798Y-99257214D01*
X133096773Y-99067235D01*
X133096768Y-99067229D01*
X132932772Y-98903233D01*
X132932770Y-98903231D01*
X132932769Y-98903230D01*
X132932764Y-98903226D01*
X132932761Y-98903224D01*
X132852876Y-98847287D01*
X132809251Y-98792710D01*
X132800000Y-98745713D01*
X132800000Y-97937500D01*
X131825001Y-97937500D01*
X131825001Y-98074986D01*
X131835494Y-98177697D01*
X131890641Y-98344119D01*
X131890643Y-98344124D01*
X131939699Y-98423655D01*
X131958139Y-98491047D01*
X131937217Y-98557711D01*
X131883575Y-98602481D01*
X131851668Y-98610583D01*
X131851779Y-98611212D01*
X131846448Y-98612151D01*
X131622417Y-98672181D01*
X131412218Y-98770199D01*
X131412214Y-98770201D01*
X131222235Y-98903226D01*
X131222229Y-98903231D01*
X131058231Y-99067229D01*
X131058226Y-99067235D01*
X130925201Y-99257214D01*
X130925198Y-99257220D01*
X130919881Y-99268623D01*
X130873707Y-99321062D01*
X130806513Y-99340212D01*
X130739633Y-99319995D01*
X130695119Y-99268623D01*
X130689801Y-99257220D01*
X130689798Y-99257214D01*
X130556773Y-99067235D01*
X130556768Y-99067229D01*
X130392769Y-98903230D01*
X130392376Y-98902955D01*
X130202782Y-98770199D01*
X129992579Y-98672180D01*
X129992576Y-98672179D01*
X129992574Y-98672178D01*
X129768551Y-98612151D01*
X129768544Y-98612150D01*
X129537502Y-98591937D01*
X129537498Y-98591937D01*
X129306455Y-98612150D01*
X129306448Y-98612151D01*
X129082417Y-98672181D01*
X128872218Y-98770199D01*
X128872214Y-98770201D01*
X128682235Y-98903226D01*
X128682229Y-98903231D01*
X128518231Y-99067229D01*
X128518226Y-99067235D01*
X128385201Y-99257214D01*
X128385198Y-99257220D01*
X128379881Y-99268623D01*
X128333707Y-99321062D01*
X128266513Y-99340212D01*
X128199633Y-99319995D01*
X128155119Y-99268623D01*
X128149801Y-99257220D01*
X128149798Y-99257214D01*
X128016773Y-99067235D01*
X128016768Y-99067229D01*
X127852769Y-98903230D01*
X127852376Y-98902955D01*
X127662782Y-98770199D01*
X127452579Y-98672180D01*
X127452576Y-98672179D01*
X127452574Y-98672178D01*
X127228551Y-98612151D01*
X127228544Y-98612150D01*
X126997502Y-98591937D01*
X126997498Y-98591937D01*
X126766455Y-98612150D01*
X126766448Y-98612151D01*
X126542417Y-98672181D01*
X126332218Y-98770199D01*
X126332214Y-98770201D01*
X126142235Y-98903226D01*
X126142229Y-98903231D01*
X125978231Y-99067229D01*
X125978226Y-99067235D01*
X125845201Y-99257214D01*
X125845198Y-99257220D01*
X125839881Y-99268623D01*
X125793707Y-99321062D01*
X125726513Y-99340212D01*
X125659633Y-99319995D01*
X125615119Y-99268623D01*
X125609801Y-99257220D01*
X125609798Y-99257214D01*
X125476773Y-99067235D01*
X125476768Y-99067229D01*
X125312769Y-98903230D01*
X125312376Y-98902955D01*
X125122782Y-98770199D01*
X124912579Y-98672180D01*
X124912576Y-98672179D01*
X124912574Y-98672178D01*
X124688551Y-98612151D01*
X124688544Y-98612150D01*
X124457502Y-98591937D01*
X124457498Y-98591937D01*
X124226455Y-98612150D01*
X124226448Y-98612151D01*
X124002425Y-98672178D01*
X124002406Y-98672185D01*
X124001891Y-98672426D01*
X124001642Y-98672463D01*
X123997340Y-98674030D01*
X123997024Y-98673164D01*
X123932813Y-98682910D01*
X123869032Y-98654383D01*
X123830799Y-98595901D01*
X123825500Y-98560038D01*
X123825500Y-88538695D01*
X132626500Y-88538695D01*
X132661103Y-88712658D01*
X132661106Y-88712667D01*
X132728983Y-88876540D01*
X132728990Y-88876553D01*
X132827535Y-89024034D01*
X132827538Y-89024038D01*
X132952961Y-89149461D01*
X132952965Y-89149464D01*
X133100446Y-89248009D01*
X133100459Y-89248016D01*
X133223363Y-89298923D01*
X133264334Y-89315894D01*
X133264336Y-89315894D01*
X133264341Y-89315896D01*
X133438304Y-89350499D01*
X133438307Y-89350500D01*
X133438309Y-89350500D01*
X133615693Y-89350500D01*
X133615694Y-89350499D01*
X133673682Y-89338964D01*
X133789658Y-89315896D01*
X133789661Y-89315894D01*
X133789666Y-89315894D01*
X133953547Y-89248013D01*
X134101035Y-89149464D01*
X134226464Y-89024035D01*
X134325013Y-88876547D01*
X134392894Y-88712666D01*
X134401597Y-88668917D01*
X134427499Y-88538695D01*
X134427500Y-88538693D01*
X134427500Y-88523920D01*
X140276499Y-88523920D01*
X140305340Y-88668907D01*
X140305343Y-88668917D01*
X140361912Y-88805488D01*
X140361919Y-88805501D01*
X140444048Y-88928415D01*
X140444051Y-88928419D01*
X140548580Y-89032948D01*
X140548584Y-89032951D01*
X140671498Y-89115080D01*
X140671511Y-89115087D01*
X140808082Y-89171656D01*
X140808087Y-89171658D01*
X140808091Y-89171658D01*
X140808092Y-89171659D01*
X140953079Y-89200500D01*
X140953082Y-89200500D01*
X141100920Y-89200500D01*
X141198462Y-89181096D01*
X141245913Y-89171658D01*
X141382495Y-89115084D01*
X141505416Y-89032951D01*
X141609951Y-88928416D01*
X141692084Y-88805495D01*
X141748658Y-88668913D01*
X141774561Y-88538693D01*
X141777500Y-88523920D01*
X141777500Y-88376079D01*
X141748659Y-88231092D01*
X141748658Y-88231091D01*
X141748658Y-88231087D01*
X141730534Y-88187332D01*
X141692087Y-88094511D01*
X141692080Y-88094498D01*
X141609951Y-87971584D01*
X141609948Y-87971580D01*
X141505419Y-87867051D01*
X141505415Y-87867048D01*
X141382501Y-87784919D01*
X141382488Y-87784912D01*
X141245917Y-87728343D01*
X141245907Y-87728340D01*
X141100920Y-87699500D01*
X141100918Y-87699500D01*
X140953082Y-87699500D01*
X140953080Y-87699500D01*
X140808092Y-87728340D01*
X140808082Y-87728343D01*
X140671511Y-87784912D01*
X140671498Y-87784919D01*
X140548584Y-87867048D01*
X140548580Y-87867051D01*
X140444051Y-87971580D01*
X140444048Y-87971584D01*
X140361919Y-88094498D01*
X140361912Y-88094511D01*
X140305343Y-88231082D01*
X140305340Y-88231092D01*
X140276500Y-88376079D01*
X140276500Y-88376082D01*
X140276500Y-88523918D01*
X140276500Y-88523920D01*
X140276499Y-88523920D01*
X134427500Y-88523920D01*
X134427500Y-88361306D01*
X134427499Y-88361304D01*
X134392896Y-88187341D01*
X134392893Y-88187332D01*
X134325016Y-88023459D01*
X134325009Y-88023446D01*
X134226464Y-87875965D01*
X134226461Y-87875961D01*
X134101038Y-87750538D01*
X134101034Y-87750535D01*
X133953553Y-87651990D01*
X133953540Y-87651983D01*
X133789667Y-87584106D01*
X133789658Y-87584103D01*
X133615694Y-87549500D01*
X133615691Y-87549500D01*
X133438309Y-87549500D01*
X133438306Y-87549500D01*
X133264341Y-87584103D01*
X133264332Y-87584106D01*
X133100459Y-87651983D01*
X133100446Y-87651990D01*
X132952965Y-87750535D01*
X132952961Y-87750538D01*
X132827538Y-87875961D01*
X132827535Y-87875965D01*
X132728990Y-88023446D01*
X132728983Y-88023459D01*
X132661106Y-88187332D01*
X132661103Y-88187341D01*
X132626500Y-88361304D01*
X132626500Y-88538695D01*
X123825500Y-88538695D01*
X123825500Y-78264961D01*
X123845185Y-78197922D01*
X123897989Y-78152167D01*
X123967147Y-78142223D01*
X123997247Y-78151192D01*
X123997329Y-78150967D01*
X124001112Y-78152344D01*
X124001909Y-78152581D01*
X124002421Y-78152820D01*
X124226450Y-78212849D01*
X124391485Y-78227287D01*
X124457498Y-78233063D01*
X124457500Y-78233063D01*
X124457502Y-78233063D01*
X124515262Y-78228009D01*
X124688550Y-78212849D01*
X124912579Y-78152820D01*
X125122782Y-78054801D01*
X125312769Y-77921770D01*
X125476770Y-77757769D01*
X125609801Y-77567782D01*
X125615118Y-77556378D01*
X125661290Y-77503940D01*
X125728484Y-77484788D01*
X125795365Y-77505004D01*
X125839881Y-77556378D01*
X125845199Y-77567782D01*
X125978230Y-77757769D01*
X126142231Y-77921770D01*
X126332218Y-78054801D01*
X126542421Y-78152820D01*
X126766450Y-78212849D01*
X126931485Y-78227287D01*
X126997498Y-78233063D01*
X126997500Y-78233063D01*
X126997502Y-78233063D01*
X127055262Y-78228009D01*
X127228550Y-78212849D01*
X127452579Y-78152820D01*
X127662782Y-78054801D01*
X127852769Y-77921770D01*
X128016770Y-77757769D01*
X128149801Y-77567782D01*
X128155118Y-77556378D01*
X128201290Y-77503940D01*
X128268484Y-77484788D01*
X128335365Y-77505004D01*
X128379881Y-77556378D01*
X128385199Y-77567782D01*
X128518230Y-77757769D01*
X128682231Y-77921770D01*
X128872218Y-78054801D01*
X129082421Y-78152820D01*
X129306450Y-78212849D01*
X129471485Y-78227287D01*
X129537498Y-78233063D01*
X129537500Y-78233063D01*
X129537502Y-78233063D01*
X129595262Y-78228009D01*
X129768550Y-78212849D01*
X129992579Y-78152820D01*
X130202782Y-78054801D01*
X130392769Y-77921770D01*
X130556770Y-77757769D01*
X130689801Y-77567782D01*
X130695118Y-77556378D01*
X130741290Y-77503940D01*
X130808484Y-77484788D01*
X130875365Y-77505004D01*
X130919881Y-77556378D01*
X130925199Y-77567782D01*
X131058230Y-77757769D01*
X131222231Y-77921770D01*
X131412218Y-78054801D01*
X131622421Y-78152820D01*
X131846450Y-78212849D01*
X132011485Y-78227287D01*
X132077498Y-78233063D01*
X132077500Y-78233063D01*
X132077502Y-78233063D01*
X132135262Y-78228009D01*
X132308550Y-78212849D01*
X132532579Y-78152820D01*
X132742782Y-78054801D01*
X132932769Y-77921770D01*
X133096770Y-77757769D01*
X133229801Y-77567782D01*
X133235118Y-77556378D01*
X133281290Y-77503940D01*
X133348484Y-77484788D01*
X133415365Y-77505004D01*
X133459881Y-77556378D01*
X133465199Y-77567782D01*
X133598230Y-77757769D01*
X133762231Y-77921770D01*
X133952218Y-78054801D01*
X134162421Y-78152820D01*
X134386450Y-78212849D01*
X134551485Y-78227287D01*
X134617498Y-78233063D01*
X134617500Y-78233063D01*
X134617502Y-78233063D01*
X134675262Y-78228009D01*
X134848550Y-78212849D01*
X135072579Y-78152820D01*
X135282782Y-78054801D01*
X135472769Y-77921770D01*
X135636770Y-77757769D01*
X135769801Y-77567782D01*
X135775118Y-77556378D01*
X135821290Y-77503940D01*
X135888484Y-77484788D01*
X135955365Y-77505004D01*
X135999881Y-77556378D01*
X136005199Y-77567782D01*
X136138230Y-77757769D01*
X136302231Y-77921770D01*
X136492218Y-78054801D01*
X136702421Y-78152820D01*
X136926450Y-78212849D01*
X137091485Y-78227287D01*
X137157498Y-78233063D01*
X137157500Y-78233063D01*
X137157502Y-78233063D01*
X137215262Y-78228009D01*
X137388550Y-78212849D01*
X137612579Y-78152820D01*
X137822782Y-78054801D01*
X138012769Y-77921770D01*
X138176770Y-77757769D01*
X138309801Y-77567782D01*
X138315118Y-77556378D01*
X138361290Y-77503940D01*
X138428484Y-77484788D01*
X138495365Y-77505004D01*
X138539881Y-77556378D01*
X138545199Y-77567782D01*
X138678230Y-77757769D01*
X138842231Y-77921770D01*
X139032218Y-78054801D01*
X139242421Y-78152820D01*
X139466450Y-78212849D01*
X139631485Y-78227287D01*
X139697498Y-78233063D01*
X139697500Y-78233063D01*
X139697502Y-78233063D01*
X139755262Y-78228009D01*
X139928550Y-78212849D01*
X140152579Y-78152820D01*
X140362782Y-78054801D01*
X140552769Y-77921770D01*
X140716770Y-77757769D01*
X140849801Y-77567782D01*
X140855118Y-77556378D01*
X140901290Y-77503940D01*
X140968484Y-77484788D01*
X141035365Y-77505004D01*
G37*
%TD.AperFunction*%
%TA.AperFunction,Conductor*%
G36*
X153817539Y-75995185D02*
G01*
X153863294Y-76047989D01*
X153874500Y-76099500D01*
X153874500Y-81157297D01*
X153854815Y-81224336D01*
X153802011Y-81270091D01*
X153740771Y-81280915D01*
X153665611Y-81275000D01*
X152409397Y-81275000D01*
X152409378Y-81275001D01*
X152327536Y-81281441D01*
X152137178Y-81332447D01*
X152094993Y-81353940D01*
X153303371Y-82562318D01*
X153336856Y-82623641D01*
X153331872Y-82693333D01*
X153303371Y-82737680D01*
X152094993Y-83946057D01*
X152137177Y-83967552D01*
X152137180Y-83967553D01*
X152327536Y-84018558D01*
X152409388Y-84024999D01*
X153665602Y-84024999D01*
X153665619Y-84024998D01*
X153740772Y-84019084D01*
X153809149Y-84033449D01*
X153858905Y-84082500D01*
X153874500Y-84142702D01*
X153874500Y-92156793D01*
X153854815Y-92223832D01*
X153802011Y-92269587D01*
X153740773Y-92280411D01*
X153665654Y-92274500D01*
X152409357Y-92274500D01*
X152409338Y-92274501D01*
X152327457Y-92280944D01*
X152137000Y-92331977D01*
X151961315Y-92421493D01*
X151808080Y-92545580D01*
X151683993Y-92698815D01*
X151594478Y-92874498D01*
X151572212Y-92957595D01*
X151535846Y-93017255D01*
X151472999Y-93047783D01*
X151452437Y-93049500D01*
X149812625Y-93049500D01*
X149745586Y-93029815D01*
X149724944Y-93013181D01*
X148942297Y-92230534D01*
X148908812Y-92169211D01*
X148913796Y-92099519D01*
X148955668Y-92043586D01*
X149017012Y-92020458D01*
X149016937Y-92020019D01*
X149019216Y-92019627D01*
X149020257Y-92019235D01*
X149020575Y-92019209D01*
X149022544Y-92019055D01*
X149213001Y-91968022D01*
X149388686Y-91878506D01*
X149541920Y-91754420D01*
X149666006Y-91601186D01*
X149755522Y-91425501D01*
X149806555Y-91235044D01*
X149813000Y-91153153D01*
X149812999Y-90650001D01*
X150607032Y-90650001D01*
X150626864Y-90876686D01*
X150626866Y-90876697D01*
X150685758Y-91096488D01*
X150685761Y-91096497D01*
X150781931Y-91302732D01*
X150781932Y-91302734D01*
X150912454Y-91489141D01*
X151073358Y-91650045D01*
X151073361Y-91650047D01*
X151259766Y-91780568D01*
X151466004Y-91876739D01*
X151466009Y-91876740D01*
X151466011Y-91876741D01*
X151518915Y-91890916D01*
X151685808Y-91935635D01*
X151847730Y-91949801D01*
X151912498Y-91955468D01*
X151912500Y-91955468D01*
X151912502Y-91955468D01*
X151969173Y-91950509D01*
X152139192Y-91935635D01*
X152358996Y-91876739D01*
X152565234Y-91780568D01*
X152751639Y-91650047D01*
X152912547Y-91489139D01*
X153043068Y-91302734D01*
X153139239Y-91096496D01*
X153198135Y-90876692D01*
X153217968Y-90650000D01*
X153198135Y-90423308D01*
X153141878Y-90213352D01*
X153139241Y-90203511D01*
X153139238Y-90203502D01*
X153088399Y-90094479D01*
X153043068Y-89997266D01*
X152912547Y-89810861D01*
X152912545Y-89810858D01*
X152751641Y-89649954D01*
X152565234Y-89519432D01*
X152565232Y-89519431D01*
X152358997Y-89423261D01*
X152358988Y-89423258D01*
X152139197Y-89364366D01*
X152139193Y-89364365D01*
X152139192Y-89364365D01*
X152139191Y-89364364D01*
X152139186Y-89364364D01*
X151912502Y-89344532D01*
X151912498Y-89344532D01*
X151685813Y-89364364D01*
X151685802Y-89364366D01*
X151466011Y-89423258D01*
X151466002Y-89423261D01*
X151259767Y-89519431D01*
X151259765Y-89519432D01*
X151073358Y-89649954D01*
X150912454Y-89810858D01*
X150781932Y-89997265D01*
X150781931Y-89997267D01*
X150685761Y-90203502D01*
X150685758Y-90203511D01*
X150626866Y-90423302D01*
X150626864Y-90423313D01*
X150607032Y-90649998D01*
X150607032Y-90650001D01*
X149812999Y-90650001D01*
X149812999Y-90175095D01*
X149832683Y-90108057D01*
X149849313Y-90087420D01*
X150878728Y-89058006D01*
X150878731Y-89058005D01*
X150990535Y-88946201D01*
X151040654Y-88859389D01*
X151069592Y-88809270D01*
X151110516Y-88656542D01*
X151110516Y-88498428D01*
X151110516Y-88490833D01*
X151110515Y-88490815D01*
X151110515Y-86905611D01*
X151130200Y-86838572D01*
X151183004Y-86792817D01*
X151252162Y-86782873D01*
X151286912Y-86793226D01*
X151466004Y-86876739D01*
X151466009Y-86876740D01*
X151466011Y-86876741D01*
X151518915Y-86890916D01*
X151685808Y-86935635D01*
X151847730Y-86949801D01*
X151912498Y-86955468D01*
X151912500Y-86955468D01*
X151912502Y-86955468D01*
X151969173Y-86950509D01*
X152139192Y-86935635D01*
X152358996Y-86876739D01*
X152565234Y-86780568D01*
X152751639Y-86650047D01*
X152912547Y-86489139D01*
X153043068Y-86302734D01*
X153139239Y-86096496D01*
X153198135Y-85876692D01*
X153217968Y-85650000D01*
X153198135Y-85423308D01*
X153139239Y-85203504D01*
X153043068Y-84997266D01*
X152912547Y-84810861D01*
X152912545Y-84810858D01*
X152751641Y-84649954D01*
X152565234Y-84519432D01*
X152565232Y-84519431D01*
X152358997Y-84423261D01*
X152358988Y-84423258D01*
X152139197Y-84364366D01*
X152139193Y-84364365D01*
X152139192Y-84364365D01*
X152139191Y-84364364D01*
X152139186Y-84364364D01*
X151912502Y-84344532D01*
X151912498Y-84344532D01*
X151685813Y-84364364D01*
X151685802Y-84364366D01*
X151466011Y-84423258D01*
X151466004Y-84423260D01*
X151466004Y-84423261D01*
X151325581Y-84488742D01*
X151286920Y-84506770D01*
X151217843Y-84517262D01*
X151154059Y-84488742D01*
X151115819Y-84430266D01*
X151110515Y-84394388D01*
X151110515Y-83153102D01*
X151537500Y-83153102D01*
X151537501Y-83153121D01*
X151543941Y-83234963D01*
X151594946Y-83425318D01*
X151684415Y-83600912D01*
X151706170Y-83627775D01*
X151706171Y-83627776D01*
X152683947Y-82650000D01*
X151706169Y-81672222D01*
X151706168Y-81672223D01*
X151684419Y-81699080D01*
X151594946Y-81874681D01*
X151543941Y-82065036D01*
X151537500Y-82146881D01*
X151537500Y-83153102D01*
X151110515Y-83153102D01*
X151110515Y-77644075D01*
X151110516Y-77644062D01*
X151110516Y-77475959D01*
X151110516Y-77475958D01*
X151101069Y-77440702D01*
X151102730Y-77370854D01*
X151106440Y-77361371D01*
X151107816Y-77357590D01*
X151107817Y-77357584D01*
X151107820Y-77357579D01*
X151167849Y-77133550D01*
X151188063Y-76902500D01*
X151167849Y-76671450D01*
X151107820Y-76447421D01*
X151009801Y-76237219D01*
X150963169Y-76170622D01*
X150940843Y-76104418D01*
X150957853Y-76036650D01*
X151008801Y-75988837D01*
X151064745Y-75975500D01*
X153750500Y-75975500D01*
X153817539Y-75995185D01*
G37*
%TD.AperFunction*%
%TD*%
M02*
